<svg data-name="Layer 1" xmlns="http://www.w3.org/2000/svg" width="1500" height="500" viewBox="0 0 1500 500"><defs><style>.cls-1{fill:#BECE49;}.cls-2{fill:#FFF;}.cls-3{fill:#aabe59;}</style></defs><path class="cls-1" d="M987.0343,297.5508V230.2229h28.2636c21.1977,0,36.44,12.7186,36.44,33.6135s-15.2421,33.7144-36.3388,33.7144Zm46.9378-33.7144c0-10.397-6.2584-18.4723-18.5732-18.4723h-11.0027V282.41h10.9017C1027.108,282.41,1033.9721,273.83,1033.9721,263.8364Z"/><path class="cls-1" d="M1083.7132,297.5508V230.2229h49.36v15.1412h-31.9984V255.862h31.2918v15.1412h-31.2918V282.41h31.9984v15.1412Z"/><path class="cls-1" d="M1213.9351,297.5508l-3.3331-9.69h-26.5466l-3.331,9.69h-19.6836l25.3363-67.3279h21.8023l25.4372,67.3279Zm-16.6573-50.1679-8.5791,25.3363H1205.86Z"/><path class="cls-1" d="M1263.6028,297.5508V230.2229h17.3619V282.41h27.0523v15.1412Z"/><path class="cls-1" d="M1337.1955,288.0623l9.1857-13.0214a30.42,30.42,0,0,0,21.5,8.8828c5.9555,0,9.5894-2.3217,9.5894-5.5518,0-9.1856-38.1558-1.8169-38.1558-27.7589,0-11.3054,9.5894-21.3995,26.85-21.3995,10.8007,0,20.1883,3.23,27.3551,9.3875l-9.4885,12.4158a31.6967,31.6967,0,0,0-19.6835-6.9649c-5.0471,0-7.2678,2.0188-7.2678,4.8451,0,8.58,38.0549,2.3217,38.0549,27.3551,0,13.5262-9.9932,22.51-28.0617,22.51C1353.4471,298.7621,1343.9586,294.5225,1337.1955,288.0623Z"/><polygon class="cls-2" points="582.802 294.44 582.801 294.437 582.805 294.45 582.802 294.44"/><polygon class="cls-2" points="583.128 295.242 583.127 295.239 583.132 295.252 583.128 295.242"/><path class="cls-2" d="M673.7379,166.3388l-61.0251-.0037a3.1982,3.1982,0,0,0-3.1983,3.1875l-.0809,24.3617a3.198,3.198,0,0,0,3.198,3.2087h13.6771V359.7241a3.1911,3.1911,0,0,0,3.191,3.1911h44.2382c60.6333,0,105.145-36.5483,105.145-98.5643C778.8829,202.33,734.3712,166.3388,673.7379,166.3388Zm-1.94,165.842h-9.1761V197.0731h9.1761c38.7616,0,69.433,23.5332,69.433,67.2778C741.2309,308.6476,711.1116,332.1808,671.7979,332.1808Z"/><path class="cls-2" d="M876.0405,249.1575c-28.9414-10.9631-39.2165-17.3518-39.2165-31.3779v-.2721c0-12.1758,10.6963-20.3567,26.6168-20.3567,13.573,0,27.8967,5.9246,42.5737,17.608l.1866.1516a2.9846,2.9846,0,0,0,4.2463-.5021l16.9473-22.3936a2.845,2.845,0,0,0-.4407-3.9029l-.3046-.2579c-17.633-15.1182-38.6178-22.7835-62.3722-22.7835-37.4076,0-63.5339,22.6844-63.5339,55.164v.5438c0,31.9607,20.1549,45.4431,57.357,59.1452,30.5435,11.0551,36.1316,18.5941,36.1316,29.46v.2733c0,13.48-11.59,22.5361-28.8411,22.5361-17.2679,0-32.6937-6.841-50.016-22.1819l-.4378-.3752a2.9861,2.9861,0,0,0-4.2333.3631l-17.9908,21.909a2.8451,2.8451,0,0,0,.3481,3.975l.4609.3976c20.58,18.575,44.6653,27.993,71.5882,27.993,38.2266,0,64.9245-23.3561,64.9245-56.7973V306.93c0-14.3132-4.245-25.3063-13.3608-34.5948C908.3169,263.8191,895.4043,256.4543,876.0405,249.1575Z"/><path class="cls-2" d="M453.8676,320.7414H456.53l.0014-.0034h-2.95C453.6756,320.7391,453.7761,320.7406,453.8676,320.7414Z"/><path class="cls-2" d="M612.0493,359.3421,531.8122,169.8289a5.2821,5.2821,0,0,0-4.8637-3.2225H500.0739a5.2821,5.2821,0,0,0-4.8637,3.2225l-54.8326,129.51-5.6094,13.2493a3.7883,3.7883,0,0,0,1.0709,4.4478,14.5666,14.5666,0,0,0,5.9015,2.8344c.0307.007.0645.0135.096.02a78.2224,78.2224,0,0,0,11.7439.8471h13.8834a2.9713,2.9713,0,0,0,2.7716-1.8823c1.0372-2.6347,3.1029-7.8845,5.7877-14.7094h74.8459l21.4931,54.7822a6.318,6.318,0,0,0,5.8718,3.9867h31.4481A2.5708,2.5708,0,0,0,612.0493,359.3421Zm-124.678-84.046c12.1857-30.9815,26.1215-66.4158,26.1215-66.4158L539.55,275.2961Z"/><path class="cls-2" d="M443.4361,334.58a87.4413,87.4413,0,0,1-13.4824-1.5329c-.321-.0774-.6322-.1613-.6322-.1613-.5592-.1561-1.1042-.3258-1.639-.5054q-.8841-.297-1.73-.6351a26.6528,26.6528,0,0,1-2.4925-1.1727c-.048-.0254-.0934-.0548-.1409-.08a25.5941,25.5941,0,0,1-9.711-9.3059c-6.8334-10.8245-12.1915-35.3183-24.8528-43.2262a38.3652,38.3652,0,0,0,11.31-6.5935c9.5407-7.8784,18.776-22.2382,18.776-45.5386,0-.8861-.0275-1.7564-.056-2.6261-.4752-14.4506-4.8743-26.51-12.2919-35.7353-7.2189-8.9773-17.2881-15.272-29.3943-18.4565a76.28,76.28,0,0,0-19.4183-2.4038h-83.44a3.2441,3.2441,0,0,0-3.2443,3.2442l-.1253,24.0421a3.2442,3.2442,0,0,0,3.2442,3.2444h13.4264l.1538,162.7239a3.1783,3.1783,0,0,0,3.1709,3.1825c6.86.0133,23.0143.03,29.8819.0331a3.1781,3.1781,0,0,0,3.1789-3.1834l-.008-70.04,22.4524.0118a19.8137,19.8137,0,0,1,13.7,5.4136c4.6636,4.5409,6.5347,9.1714,9.3975,15.3469,4.7246,10.1922,5.7652,15.3823,12.4436,26.8151,7.2633,12.4347,16.4252,20.5463,28.7327,23.3275.08.018.1676.0353.25.0531,7.0872,1.5357,26.13,2.1409,34.9727,2.2147h3.0241a6.021,6.021,0,0,0,5.6037-3.8183l8.6569-22.0226a1.9147,1.9147,0,0,0-1.782-2.6153Zm-91.1292-75.82H323.5257L323.4,197.2007l29.4631.1252c17.7109,0,28.5025,11.0654,28.5025,30.4367C381.366,247.4121,370.5744,258.76,352.3069,258.76Z"/><path class="cls-2" d="M225.5542,259.2241l-.6574-.1957.6574-.3561c11.8981-6.088,23.9518-19.7154,23.9518-41.5733,0-32.3739-25.4561-50.6335-60.8716-50.6335H108.0417a3.1775,3.1775,0,0,0-3.1776,3.1776V194.002a3.1775,3.1775,0,0,0,3.1776,3.1776h13.6376l.0066,162.551a3.1843,3.1843,0,0,0,3.1847,3.1844l64.5937-.0024c36.5238,0,67.79-17.7081,67.79-56.9956C257.2543,285.9925,246.86,265.59,225.5542,259.2241ZM157.9252,197.18h31.5071c16.043,0,24.3474,10.2332,24.3474,24.3479,0,14.11-8.5778,25.1776-23.7957,25.1776H157.9252Zm35.3786,135.0186s-35.3786-.0515-35.3786-.1152V275.4811h35.3786c17.43,0,27.6677,11.8979,27.6677,28.2195C220.9715,320.3051,211.012,332.1982,193.3038,332.1982Z"/><path class="cls-1" d="M769.8181,135.7269l-10.8276,28.139,11.3477,25.595.0179.04,25.6081-11.3786,16.265-42.27Zm6.7314,37.6788h0l-.0288-.012a7.9409,7.9409,0,0,1,5.7034-14.8222l.0294.01h0a7.9417,7.9417,0,1,1-5.704,14.8238Z"/><path class="cls-3" d="M795.9642,178.1226l16.265-42.27-21.2055-.0629H790.99l-8.7662,22.7818.0294.01h0a7.9417,7.9417,0,1,1-5.704,14.8238h0l-.0288-.012-6.1825,16.0672.0179.04Z"/></svg>
