<svg version="1.1" xmlns="http://www.w3.org/2000/svg" xmlns:xlink="http://www.w3.org/1999/xlink" x="0px" y="0px" viewBox="0 0 151.3 58.5" enable-background="new 0 0 151.3 58.5" xml:space="preserve">
  <path fill="#FFF" d="M141.6,38.6h-0.9V41c0,0.1-0.1,0.2-0.2,0.2c-0.1,0-0.2-0.1-0.2-0.2v-2.5h-0.9 c-0.1,0-0.2-0.1-0.2-0.2c0-0.1,0.1-0.2,0.2-0.2h2.2c0.1,0,0.2,0.1,0.2,0.2C141.8,38.5,141.8,38.6,141.6,38.6z"></path>
  <path fill="#FFF" d="M145.1,38.2c0-0.1,0.1-0.1,0.2-0.1c0.1,0,0.2,0.1,0.2,0.2V41c0,0.1-0.1,0.2-0.2,0.2 c-0.1,0-0.2-0.1-0.2-0.2v-1.9l-1,1.9c0,0.1-0.1,0.1-0.2,0.1c-0.1,0-0.2-0.1-0.2-0.1l-1-1.9V41c0,0.1-0.1,0.2-0.2,0.2 c-0.1,0-0.2-0.1-0.2-0.2v-2.7c0-0.1,0.1-0.2,0.2-0.2c0.1,0,0.2,0.1,0.2,0.1l1.2,2.4L145.1,38.2z"></path>
  <path fill="#FFF" d="M121.5,12.7c-0.3,2-1.7,8.7,1.2,5.3c4.4-5.1,4.4-9,1-8.4C122.3,9.9,121.5,12.7,121.5,12.7z"></path>
  <path fill="#FFF" d="M51.2,47.1c0,0-2.2,0-3,0c-0.8,0-2.8,0-3.1,0v1h1.1c0.6,0,0.9,0.2,0.9,0.8 c0.1,1,0.1,6.6,0,7.8c0,0.6-0.2,0.7-1,0.7h-1v1c0,0,2.3,0,3,0h3c3.4,0,6.2-1.5,6.1-5.7C57.3,48.8,55.4,47.1,51.2,47.1z M51,57.4 h-0.9c-0.4,0-0.8-0.2-0.8-0.8c0-1.1-0.1-6.8,0-8c0-0.4,0.2-0.7,0.8-0.7H51c3,0,4,1.2,4,4.7C55,56.4,53.8,57.4,51,57.4z"></path>
  <path fill="#FFF" d="M67,57.3h-2.5c-0.5,0-0.9-0.2-0.9-0.8c0-0.5-0.1-1.9-0.1-3.5h0.8c1.7,0,2.3,0.6,2.4,2 v0.2h0.9c-0.1-0.8-0.1-1.4-0.1-2.6c0-1.2,0-1.6,0.1-2.5h-1v0.2c0,1.5-0.7,1.9-2.3,1.9h-0.9c0-1.5,0-2.9,0.1-3.3 c0-0.4,0.2-0.8,0.8-0.8H67c2.1,0,2.7,0.6,2.7,3h1c0-1.2,0-2.9,0.1-4.1c-0.8,0.1-2.9,0.1-3.6,0.1c-2.5,0-4.4,0-4.7,0 c-0.3,0-2.8,0-3.1,0v1h1.1c0.6,0,0.9,0.2,0.9,0.8c0.1,1,0.1,6.6,0,7.5c-0.1,0.6-0.2,1-1,1h-1v1c0,0,2.2,0,3,0h5 c0.8,0,2.5,0,3.3,0.1c0-1.4,0-3.1,0.2-4.3h-1.1C69.8,56.2,69.2,57.3,67,57.3z"></path>
  <path fill="#FFF" d="M84.6,55.9c-0.5-1-3.1-7.1-3.8-9c0,0-0.6,0-1,0c-0.3,0-1,0-1,0c-0.7,1.9-3.2,8-3.6,8.9 c-0.4,1-0.8,1.3-1.8,1.3h-0.7v1c0,0,1.7,0,2.7,0c1,0,2.7,0,2.7,0l0-1h-0.8c-1.2,0-1.3-0.6-1-1.5c0.1-0.2,0.2-0.6,0.4-1 c1.3,0,3.7,0,4.9,0l0.4,1c0.4,1,0.1,1.6-0.7,1.6h-0.8l0,1c0,0,2,0,3.1,0c1.1,0,3.1,0,3.1,0v-1h-0.8 C85.4,57.3,85.1,56.9,84.6,55.9z M77.2,53.9c0.7-1.7,1.6-4.1,2.1-5.3c0.5,1.1,1.5,3.6,2.2,5.3C80.2,53.9,78.4,53.9,77.2,53.9z"></path>
  <path fill="#FFF" d="M98.3,53.9c-0.2,2.8-1,3.3-3,3.3h-1.5c-0.5,0-0.8-0.1-0.9-0.7c0-1.2,0-6.8,0-7.8 c0-0.6,0.3-0.8,0.9-0.8H95v-1c-0.4,0-2,0-3,0s-3.1,0-3.1,0v1H90c0.6,0,0.9,0.2,0.9,0.8c0.1,1,0.1,6.6,0,7.8c0,0.6-0.2,0.7-1,0.7 h-1v1c0.5,0,2.3,0,3,0h4c0.8,0,2.5,0,3.3,0.1c0-1,0.1-3.3,0.2-4.4H98.3z"></path>
  <path fill="#FFF" d="M106.7,51.3c-2.5-0.3-3.6-0.8-3.6-1.9c0-1,0.9-1.7,2.8-1.7c2.1,0,3.3,0.9,3.8,2.9h0.9 c-0.1-1-0.1-2.6,0.2-3.6h-0.9c-0.1,0.5-0.3,0.8-1.2,0.4c-0.4-0.2-1.3-0.5-2.7-0.5c-3,0-4.3,1.6-4.3,3.5c0,1.9,1.4,3,4.1,3.3 c2.7,0.3,4,0.8,4,2.2c0,1.3-1.2,2-3.2,2c-2.5,0-3.8-1.1-4.3-3.2h-0.9c0.1,1.2,0.1,2.7-0.2,3.8h0.9c0.1-0.5,0.3-1.1,1.2-0.6 c1,0.6,2,0.8,3.3,0.8c2.8,0,4.6-1.4,4.6-3.6C111.2,52.9,110.2,51.7,106.7,51.3z"></path>
  <path fill="#FFF" d="M24.1,51.4c-0.7,0-1.3,0.6-1.3,1.3c0,0.7,0.6,1.3,1.3,1.3c0.5,0,0.9-0.3,1.1-0.7h16.4V52 H25.2C25,51.6,24.6,51.4,24.1,51.4z"></path>
  <path fill="#FFF" d="M134.4,51.4c-0.5,0-0.9,0.3-1.1,0.7h-16.4v1.2h16.4c0.2,0.4,0.6,0.7,1.1,0.7 c0.7,0,1.3-0.6,1.3-1.3C135.6,51.9,135.1,51.4,134.4,51.4z"></path>
  <path fill="#FFF" d="M66,23.9C66,23.9,66,23.9,66,23.9C66,23.9,66,23.9,66,23.9z"></path>
  <path fill="#FFF" d="M74.9,37.8c0,2.5,2.9,4.4,4.7,4.3c3.6-0.1,6.5-2.5,8.1-5c1.1,1.8,2.8,3.1,5,3.1 c2.2,0,4.2-1.1,5.8-2.7c0.5,1.9,1.8,3.4,4.1,3.5c3.7,0.1,6.1-2.9,7.9-5.2c1.3,2.1,3.6,4,6.1,4c4.1,0,6.8-3.8,8-7.2l1.4-3.6 c0.5-0.9,0.7-1,0.8-1.2c2,2.2,6,2.7,5.7,7.5c-0.5,1.5-2.8,1.8-4.7,1.7c-0.9,0-1.5-0.1-2.1-0.4c-1-0.3-1.6-1.3-2-0.6 c-2,6.4,6.9,5.9,10,3.6c1.5-1.2,4.2-3.8,5.1-4.8c0.9-0.8,2.6-2.3,4.2-3.4c6.3-4.4,2.2,1.3,6.2-1.1c3.9-2.3,1.8-4.7-1-4.9 c-3.5-0.3-7.6,3.5-7.6,3.5c-2.3,1.7-2.2,1.7-4.9,3.9c-1.2-4.3-5.1-5.8-7.1-9.2c1-1.4,1.9-5.8,1.1-6.4c-4-2.2-6.7,4.6-5,8.2 c-0.6,1.3-0.9,2-0.9,2l-1.7,3.5c-1.1,1.8-2.3,5.4-5.3,5.4c-2,0-3.3-3-3.8-4.6c2.6-5.4,5.5-12.8,5.5-18.8c0-2.1-0.4-6.6-3.3-6.6 c-4.4,0-6.1,10.7-6.5,14.1c-0.3-0.1-0.6-0.1-1-0.1c-4.1,0-7.2,3.7-9.3,9.5c-0.3,0.8-1.8,7.2-5.4,7.2c-2.5,0-3-4-3-5.9 c0-1.3,0.4-2.5,0.4-3.8c0-0.5-0.1-1-0.5-1.3c0.2-0.3,0.3-0.7,0.3-1.1c0-1.9-2.3-2.9-3.9-2.9c-4,0-8.4,4.4-10.6,8.8l0,0 c-4,6.8-6.1,6.7-6.1,6.7c-1,0.1-1.7-0.7-2.1-2.3c-0.2-0.8-0.2-1.1-0.3-2.3c-0.1-4-0.4-3.6,1.3-5.8c0.8-1,0.5-2.2-0.5-2.9 c-0.8-0.4-1.5-0.6-2.1-0.3l0,0c-0.2,0.1-0.4,0.3-0.5,0.5c-0.9,0.5-2.1,0-3.6-0.3c-0.3,0-0.3,0.2,0.2-1.3c0.4-1.2,0.4-2.6-0.9-3.2 c-1.3-0.6-2.1,0.4-2.8,1.4c-0.3,0.5-0.9,1.5-1.1,2c-0.3,0.9-0.4,1.4-0.1,2.6c0.2,0.8,0.6,1.4,1.2,1.7c-1.3,4.5-2.5,0.2-2.4,3.6 c0,3.5,3.2,2.4,3.7,1.5c1-1.7,1.7-4.2,1.8-4.9c0.8,0,1,0.2,2.5,0.4c0,1.9-0.1,6.1,0,7.8c0.2,2.9,1.6,4.6,4.3,4.9 C68.2,40.7,71.6,41.6,74.9,37.8z M86.4,32c0,2.8-2.5,5.8-5.4,6.6c-1.7,0.5-3.3-1.4-3.2-3c0.2-3.7,4.5-9.3,8-9.3 c0.5,0,0.9,0.1,1.2,0.3c-0.6,0.9-0.8,2.1-0.8,3.1C86.2,30.5,86.4,31.3,86.4,32z M103.5,37.5c-1.5,0-2.5-1.6-2.5-3.2 c0.1-2.7,3.2-10.6,6.3-10.6c0.5,0,0.8,0.3,1.2,0.5v0.3c0,2.6,0.1,5,0.7,7.5C108.2,33.6,105.5,37.5,103.5,37.5z M112,24.6 c0-4,0.8-11.1,2.9-14.5c0.2,1,0.3,2,0.3,3c0,4.2-1.5,9.1-3.1,13C112,25.7,112,25.2,112,24.6z"></path>
  <path fill="#FFF" d="M45.9,0.1C30.8-0.8,14.5,3.6,6.5,7.4c-0.9,0.4-3.6,1.7-5.6,4.2C-1,13.7,0.1,17,4.5,15.3 c4.4-1.7-2.9-1.7,4.2-4.7c4.6-2.4,10.7-4,16.7-5.1c-0.2,0.6-0.4,1.2-0.5,1.8v0c0,0,0,0,0,0.1c-0.6,2.4-0.8,5-1,7.8 c-0.2,2.3-0.4,4.7-0.6,6.6c-1.2,0.6-2.3,1.6-2.3,2.9c0,1.1,0.8,1.8,1.8,2.2c0,3.3-0.1,7,0.2,10.5c0,3.3,0.5,5.9,2.7,5.9 c1.8,0,1.2-2.1,1.6-3.1c10.3,9.9,35.4-4.2,25.4-16.8c-1-1.2-2.4-1.8-3.9-2.8c3.6-1.1,11.1-4.7,12.1-10C62.5,2.3,53,0.6,45.9,0.1z M50.6,29.3c0.4,7.3-9.2,12.7-17.4,9.6c-0.9-0.4-1.9-1.1-2.1-3.2c-1.3-0.9-2.4-0.6-3.9,0c-0.3-3.6-0.3-1.7,0-8.9 c5.6,0.4,12.9-4,16.4-3.9C47.5,23,50.4,25.1,50.6,29.3z M44.2,19c-1.3,0.4-8.7-1.9-17.1,1.1C27,12.5,29.4,6.7,27.4,4.8 C33.6,3.6,56.3,0.6,57,8.7C57.3,12.7,49,17.3,44.2,19z"></path>
  <path fill="#FFF" d="M66.3,23.6"></path>
</svg>
