<svg xmlns="http://www.w3.org/2000/svg" xmlns:xlink="http://www.w3.org/1999/xlink" width="96px" height="14px" viewBox="0 0 96 14" version="1.1">
  <path d="M93.3573336,13.7230769 L95.7924013,13.7230769 L95.7924013,0.707384615 L93.3573336,0.707384615 L93.3573336,13.7230769 Z M88.2694624,5.83953846 C86.8338899,5.83953846 86.1980953,7.03969231 86.1980953,7.83353846 L90.2863198,7.83353846 C90.2863198,6.63338462 89.4140139,5.83953846 88.2694624,5.83953846 Z M86.179774,9.60630769 L86.179774,9.75292308 C86.179774,10.9536923 87.2337788,11.914 88.4332942,11.914 C89.3595042,11.914 90.0136201,11.4152308 90.3229624,10.732 L92.8485767,10.732 C92.8485767,11.1569231 91.8312145,14 88.5059738,14 C85.3257893,14 83.6181227,11.4152308 83.6181227,8.82984615 C83.6181227,6.37507692 85.3441106,3.86415385 88.2694624,3.86415385 C91.2131355,3.86415385 92.9574446,6.35630769 92.9574446,9.60630769 L86.179774,9.60630769 Z M83.5814801,6.098 C82.2914182,6.098 81.2196977,7.07630769 81.2196977,8.47892308 L81.2196977,13.7229231 L78.78463,13.7229231 L78.78463,4.17784615 L81.0926599,4.17784615 L81.183055,5.17492308 L81.2196977,5.17492308 C81.9466445,4.30707692 82.7096284,3.95615385 83.4726122,3.95615385 C83.7636332,3.95615385 83.9813691,3.99338462 84.0723699,4.04861538 L84.0723699,6.11661538 C83.8908225,6.11661538 83.8175372,6.098 83.5814801,6.098 Z M77.8034561,6.098 C76.5133941,6.098 75.4416736,7.07630769 75.4416736,8.47892308 L75.4416736,13.7229231 L73.0066059,13.7229231 L73.0066059,4.17784615 L75.3144844,4.17784615 L75.405031,5.17492308 L75.4416736,5.17492308 C76.1680148,4.30707692 76.9316043,3.95615385 77.6945882,3.95615385 C77.9850035,3.95615385 78.2031936,3.99338462 78.2943459,4.04861538 L78.2943459,6.11661538 C78.1127984,6.11661538 78.0399674,6.098 77.8034561,6.098 Z M69.9723862,8.81184615 C69.7358748,8.94107692 69.3182703,9.07030769 68.5736077,9.23615385 C67.682829,9.43923077 67.0830713,9.60630769 66.6471455,9.90138462 C66.2474079,10.1778462 66.1202187,10.6766154 66.1202187,10.8984615 C66.1202187,11.1195385 66.2657293,12.08 67.718866,12.08 C68.5369651,12.08 69.0822131,11.8215385 69.518139,11.4338462 C69.9357436,11.0643077 69.9723862,10.3443077 69.9723862,9.67969231 L69.9723862,8.81184615 Z M70.190122,13.7229231 C70.136218,13.4272308 70.0995754,13.2061538 70.0635385,12.8918462 C69.0822131,13.7229231 68.2642654,14 67.1559023,14 C65.4476301,14 63.704078,12.836 63.704078,11.0270769 C63.704078,9.10753846 65.4299144,8.23984615 67.0653557,7.90692308 C68.5736077,7.61184615 69.8997066,7.87015385 69.8997066,6.79984615 C69.8997066,6.04261538 69.0822131,5.59969231 68.2097557,5.59969231 C67.7011503,5.59969231 67.2102605,5.76569231 66.9015239,6.024 C66.6111085,6.26384615 66.4839193,6.63338462 66.4295611,6.98369231 L64.30323,6.98369231 C64.3942309,5.87615385 64.7941198,5.02707692 65.5571037,4.54692308 C66.2295409,4.12261538 67.0653557,3.86415385 68.1914344,3.86415385 C70.7536913,3.86415385 72.2802647,4.91646154 72.2802647,7.22415385 L72.2802647,11.2853846 L72.2802647,11.8215385 C72.2802647,12.5041538 72.316453,13.1503077 72.643511,13.7229231 L70.190122,13.7229231 Z M58.525206,7.88876923 L55.6542124,7.88876923 L55.6542124,11.6736923 L58.4706963,11.6736923 C59.7607583,11.6736923 60.7964419,11.1009231 60.7964419,9.77215385 C60.7964419,9.08830769 60.5420634,7.88876923 58.525206,7.88876923 Z M58.4706963,2.71938462 L57.5078437,2.71938462 L55.6542124,2.71938462 L55.6542124,5.93215385 L58.4706963,5.93215385 C59.3425481,5.93215385 60.5060265,5.54446154 60.5060265,4.28846154 C60.5060265,3.47661538 59.9245901,2.71938462 58.4706963,2.71938462 Z M60.0333066,13.7229231 L53.2012777,13.7229231 L53.2012777,0.707384615 L58.525206,0.707384615 C62.3230152,0.707384615 62.9771311,2.62676923 62.9771311,3.99338462 C62.9771311,6.11661538 61.1234998,6.67 60.978595,6.76261538 C61.1234998,6.83661538 63.4496996,7.464 63.4496996,10.2518462 C63.4496996,12.4309231 61.504916,13.7229231 60.0333066,13.7229231 Z M46.7147794,2.36846154 C46.0971547,2.36846154 45.5885493,2.88584615 45.5885493,3.384 C45.5885493,4.012 46.1150218,4.58415385 46.6242328,5.26738462 C47.2417062,4.78723077 47.8958221,4.17784615 47.8958221,3.51323077 C47.8958221,2.81184615 47.2600275,2.36846154 46.7147794,2.36846154 Z M46.0061538,8.05461538 C45.6424533,8.29507692 45.3158496,8.51676923 44.879318,8.88584615 C44.3346757,9.34676923 44.0980129,9.88276923 44.0980129,10.3624615 C44.0980129,11.1935385 44.7706015,11.8947692 45.570228,11.8947692 C46.751422,11.8947692 47.5321215,11.1935385 48.0596539,10.8244615 C47.2050636,9.67969231 46.3515331,8.51676923 46.0061538,8.05461538 Z M52.2017825,13.7229231 L50.2576046,13.7229231 C49.8945097,13.2241538 49.3680372,12.5409231 49.3680372,12.5409231 C48.5317681,13.2981538 47.1873479,14 45.5885493,14 C43.0079711,14 41.6995878,12.024 41.6995878,10.4363077 C41.6995878,8.14723077 43.5350492,6.89184615 44.7889228,6.31969231 C44.6434123,6.098 43.40786,4.87923077 43.40786,3.34676923 C43.40786,2.018 44.6073754,0.393692308 46.6242328,0.393692308 C48.4229002,0.393692308 49.9855105,1.64846154 49.9855105,3.55046154 C49.9855105,5.35938462 48.6404846,6.30107692 47.8597852,6.81784615 C48.4412215,7.59307692 48.9860153,8.31307692 49.512942,9.01507692 C49.512942,9.01507692 50.203852,7.09492308 50.203852,6.96569231 L52.2927833,6.96569231 C52.1840668,8.05461538 51.7658566,9.66107692 50.8573623,10.8244615 C51.5114782,11.6923077 52.2017825,12.6147692 53.0197302,13.7229231 C53.0197302,13.7229231 53.0197302,13.7229231 52.2017825,13.7229231 Z M36.7396629,5.83953846 C35.3040904,5.83953846 34.6676901,7.03969231 34.6676901,7.83353846 L38.7565204,7.83353846 C38.7565204,6.63338462 37.8840629,5.83953846 36.7396629,5.83953846 Z M34.6499745,9.60630769 L34.6499745,9.75292308 C34.6499745,10.9536923 35.7039793,11.914 36.9028891,11.914 C37.8297047,11.914 38.4838206,11.4152308 38.7925573,10.732 L41.3181716,10.732 C41.3181716,11.1569231 40.3008093,14 36.9755686,14 C33.7958384,14 32.0877176,11.4152308 32.0877176,8.82984615 C32.0877176,6.37507692 33.8141597,3.86415385 36.7396629,3.86415385 C39.6827303,3.86415385 41.4270395,6.35630769 41.4270395,9.60630769 L34.6499745,9.60630769 Z M30.8521653,13.7415385 L30.77994,13.7415385 C28.8536291,13.7415385 28.4360245,12.5409231 28.4360245,11.4152308 L28.4360245,5.83953846 L27.1636782,5.83953846 L27.1636782,4.17784615 L28.4360245,4.17784615 L28.4360245,0.984307692 L30.8521653,0.984307692 L30.8521653,4.17784615 L32.5786074,4.17784615 L32.5786074,5.83953846 L30.8521653,5.83953846 L30.8521653,10.64 C30.8521653,11.5252308 31.088071,11.8581538 31.9244914,11.8581538 L32.6697596,11.8581538 L32.6697596,13.7229231 C31.3247337,13.7415385 30.8521653,13.7415385 30.8521653,13.7415385 Z M24.8197628,8.81184615 C24.5837057,8.94107692 24.1656469,9.07030769 23.4209843,9.23615385 C22.5308113,9.43923077 21.9310536,9.60630769 21.4945221,9.90138462 C21.0946331,10.1778462 20.9675953,10.6766154 20.9675953,10.8984615 C20.9675953,11.1195385 21.1135601,12.08 22.5668482,12.08 C23.384796,12.08 23.9295897,11.8215385 24.3655156,11.4338462 C24.7831202,11.0643077 24.8197628,10.3443077 24.8197628,9.67969231 L24.8197628,8.81184615 Z M25.0379528,13.7229231 C24.9835946,13.4272308 24.946952,13.2061538 24.9109151,12.8918462 C23.9295897,13.7229231 23.111642,14 22.0031275,14 C20.2956123,14 18.5514546,12.836 18.5514546,11.0270769 C18.5514546,9.10753846 20.277291,8.23984615 21.9127323,7.90692308 C23.4209843,7.61184615 24.7470832,7.87015385 24.7470832,6.79984615 C24.7470832,6.04261538 23.9295897,5.59969231 23.0571323,5.59969231 C22.5485269,5.59969231 22.0582428,5.76569231 21.7489005,6.024 C21.4584851,6.26384615 21.3312959,6.63338462 21.2769377,6.98369231 L19.1506066,6.98369231 C19.2416075,5.87615385 19.6414964,5.02707692 20.4044803,4.54692308 C21.0769175,4.12261538 21.9127323,3.86415385 23.0394167,3.86415385 C25.6010679,3.86415385 27.1276413,4.91646154 27.1276413,7.22415385 L27.1276413,11.2853846 L27.1276413,11.8215385 C27.1276413,12.5041538 27.1636782,13.1503077 27.4908876,13.7229231 L25.0379528,13.7229231 Z M18.5874916,6.098 C17.2974296,6.098 16.2257091,7.07630769 16.2257091,8.47892308 L16.2257091,13.7229231 L13.7906414,13.7229231 L13.7906414,4.17784615 L16.0985199,4.17784615 L16.1890665,5.17492308 L16.2257091,5.17492308 C16.9520503,4.30707692 17.7150341,3.95615385 18.4786236,3.95615385 C18.769039,3.95615385 18.9872291,3.99338462 19.0783813,4.04861538 L19.0783813,6.11661538 C18.8962282,6.11661538 18.8233973,6.098 18.5874916,6.098 Z M10.9746117,6.13461538 C10.774743,4.84261538 9.37535885,2.646 6.72255535,2.646 C4.34199733,2.646 2.45278333,4.56553846 2.45278333,7.13215385 C2.45278333,9.476 4.41528254,11.5072308 6.74102807,11.5072308 C9.33932191,11.5072308 10.6469481,9.292 10.8652896,8.57153846 L13.3180729,8.57153846 C12.918184,10.8058462 10.6292325,14 6.77706501,14 C2.97986147,14 0,10.8426154 0,7.05830769 C0,3.31015385 2.96154016,0.135230769 6.70423405,0.135230769 C10.3748541,0.135230769 13.0820158,3.03369231 13.4269408,6.13461538 L10.9746117,6.13461538 L10.9746117,6.13461538 Z" fill="#FFFFFF"/>
</svg>
